# AST/ASF file generated using VICON BodyLanguage
# -----------------------------------------------
:version 1.10
:name VICON
:units
  mass 1.0
  length 0.45
  angle deg
:documentation
   .ast/.asf automatically generated from VICON data using
   VICON BodyBuilder and BodyLanguage model FoxedUp or BRILLIANT.MOD
:root
   order TX TY TZ RX RY RZ
   axis XYZ
   position 0 0 0  
   orientation 0 0 0 
:bonedata
  begin
     id 1 
     name lhipjoint
     direction 0.603808 -0.713975 0.35448 
     length 2.2025 
     axis 0 0 0  XYZ
  end
  begin
     id 2 
     name lfemur
     direction 0.34202 -0.939693 0  
     length 6.55877  
     axis 0 0 20  XYZ
    dof rx ry rz
    limits (-160.0 20.0)
           (-70.0 70.0)
           (-60.0 70.0)
  end
  begin
     id 3 
     name ltibia
     direction 0.34202 -0.939693 0   
     length 6.80302   
     axis 0 0 20   XYZ
    dof rx
    limits (-10.0 170.0)
  end
  begin
     id 4 
     name lfoot
     direction 0.091848 -0.25235 0.963267   
     length 2.03446   
     axis -90 7.62852e-016 20   XYZ
    dof rx rz
    limits (-45.0 90.0)
           (-70.0 20.0)
  end
  begin
     id 5 
     name ltoes
     direction 1.53608e-011 -4.21925e-011 1   
     length 1.02033   
     axis -90 7.62852e-016 20   XYZ
    dof rx
    limits (-90.0 20.0)
  end
  begin
     id 6 
     name rhipjoint
     direction -0.587285 -0.724947 0.359928   
     length 2.16916  
     axis 0 0 0  XYZ 
  end
  begin
     id 7 
     name rfemur
     direction -0.34202 -0.939693 0   
     length 6.43173   
     axis 0 0 -20   XYZ
    dof rx ry rz
    limits (-160.0 20.0)
           (-70.0 70.0)
           (-70.0 60.0)
  end
  begin
     id 8 
     name rtibia
     direction -0.34202 -0.939693 0   
     length 6.70662   
     axis 0 0 -20   XYZ
    dof rx
    limits (-10.0 170.0)
 end
 begin
     id 9 
     name rfoot
     direction -0.11854 -0.325686 0.938018   
     length 2.0773  
     axis -90 -7.62852e-016 -20   XYZ
    dof rx rz
    limits (-45.0 90.0)
           (-20.0 70.0)
  end
  begin
     id 10 
     name rtoes
     direction -1.53547e-011 -4.21838e-011 1   
     length 1.03267   
     axis -90 -7.62852e-016 -20   XYZ
    dof rx
    limits (-90.0 20.0)
  end
  begin
     id 11 
     name lowerback
     direction -0.0286554 0.999539 0.0100613   
     length 2.08751   
     axis 0 0 0   XYZ
    dof rx ry rz
    limits (-20.0 45.0)
           (-30.0 30.0)
           (-30.0 30.0)
  end
  begin
     id 12 
     name upperback
     direction 0.0227093 0.999705 -0.00860929   
     length 2.08517   
     axis 0 0 0   XYZ
    dof rx ry rz
    limits (-20.0 45.0)
           (-30.0 30.0)
           (-30.0 30.0)
  end
  begin
     id 13 
     name thorax
     direction 0.0351627 0.999285 -0.013892   
     length 2.08412   
     axis 0 0 0   XYZ
    dof rx ry rz
    limits (-20.0 45.0)
           (-30.0 30.0)
           (-30.0 30.0)
  end
  begin
     id 14 
     name lowerneck
     direction -0.0696283 0.997344 0.0213922   
     length 1.44164   
     axis 0 0 0   XYZ
    dof rx ry rz
    limits (-20.0 45.0)
           (-30.0 30.0)
           (-30.0 30.0)
  end
  begin
     id 15 
     name upperneck
     direction 0.0531 0.990412 -0.127531   
     length 1.45022   
     axis 0 0 0   XYZ
    dof rx ry rz
    limits (-20.0 45.0)
           (-30.0 30.0)
           (-30.0 30.0)
  end
  begin
     id 16
     name head
     direction 0.0188154 0.998548 -0.0504727  
     length 1.45845  
     axis 0 0 0   XYZ
    dof rx ry rz
    limits (-20.0 45.0)
           (-30.0 30.0)
           (-30.0 30.0)
  end
  begin
     id 17 
     name lclavicle
     direction 0.961559 0.260051 0.088188  
     length 2.86057  
     axis 0 0 0   XYZ
    dof ry rz
    limits (-20.0 10.0)
           (0.0 20.0)
  end
  begin
     id 18 
     name lhumerus
     direction 1 -4.48959e-011 2.88185e-027   
     length 4.36901   
     axis 180 -30 -90   XYZ
    dof rx ry rz
    limits (-60.0 90.0)
           (-90.0 90.0)
           (-90.0 90.0)
  end
  begin
     id 19
     name lradius
     direction 1 -4.48965e-011 -3.92618e-028   
     length 3.21737   
     axis 180 -30 -90   XYZ
    dof rx
    limits (-10.0 170.0)
  end
  begin
     id 20
     name lwrist
     direction 1 -4.49037e-011 2.57246e-027   
     length 1.60869   
     axis -1.61769e-015 90 90   XYZ
    dof ry
    limits (-180.0 0.0)
 end
  begin
     id 21 
     name lhand
     direction 1 -4.48807e-011 5.12958e-027   
     length 0.564313   
     axis -3.27988e-015 90 90   XYZ
    dof rx rz
    limits (-90.0 90.0)
           (-45.0 45.0)
  end
  begin
     id 22 
     name lfingers
     direction 1 -4.48879e-011 1.02687e-026   
     length 0.454963   
     axis -6.5598e-015 90 90   XYZ
    dof rx
    limits (0.0 90.0)
  end
  begin
     id 23
     name lthumb
     direction 0.707107 -6.3475e-011 0.707107   
     length 0.653239   
     axis -90 45 2.19363e-014   XYZ
    dof rx rz
    limits (-45.0 45.0)
           (-45.0 45.0)
  end
  begin
     id 24 
     name rclavicle
     direction -0.954677 0.253915 0.155304   
     length 3.11497  
     axis 0 0 0   XYZ 
    dof ry rz
    limits (-10.0 20.0)
           (-20.0 0.0)
  end
  begin
     id 25 
     name rhumerus
     direction -1 -4.48958e-011 -8.20169e-028  
     length 4.34118   
     axis 180 30 90   XYZ
    dof rx ry rz
    limits (-90.0 60.0)
           (-90.0 90.0)
           (-90.0 90.0)
  end
  begin
     id 26 
     name rradius
     direction -1 -4.48978e-011 1.5676e-027   
     length 3.09531   
     axis 180 30 90   XYZ
    dof rx
    limits (-10.0 170.0)
  end
  begin
     id 27 
     name rwrist
     direction -1 -4.49001e-011 2.57123e-027   
     length 1.54765   
     axis -1.61769e-015 -90 -90   XYZ
    dof ry
    limits (-180.0 0.0)
  end
  begin
     id 28
     name rhand
     direction -1 -4.48847e-011 5.13225e-027   
     length 0.597446   
     axis -3.27988e-015 -90 -90   XYZ
    dof rx rz
    limits (-90.0 90.0)
           (-45.0 45.0)
  end
  begin
     id 29
     name rfingers
     direction -1 -4.49094e-011 1.02974e-026   
     length 0.481677   
     axis -6.5598e-015 -90 -90   XYZ
    dof rx
    limits (0.0 90.0)
  end
  begin
     id 30
     name rthumb
     direction -0.707107 -6.34859e-011 0.707107   
     length 0.691594   
     axis -90 -45 -2.19363e-014   XYZ
    dof rx rz
    limits (-45.0 45.0)
           (-45.0 45.0)
  end
:hierarchy
  begin
    root lhipjoint rhipjoint lowerback
    lhipjoint lfemur
    lfemur ltibia
    ltibia lfoot
    lfoot ltoes
    rhipjoint rfemur
    rfemur rtibia
    rtibia rfoot
    rfoot rtoes
    lowerback upperback
    upperback thorax
    thorax lowerneck lclavicle rclavicle
    lowerneck upperneck
    upperneck head
    lclavicle lhumerus
    lhumerus lradius
    lradius lwrist
    lwrist lhand lthumb
    lhand lfingers
    rclavicle rhumerus
    rhumerus rradius
    rradius rwrist
    rwrist rhand rthumb
    rhand rfingers
  end

#!OML:ASF I:\Acrobat_Osman\acrobat\cartwheel_test 2\Patient 1\Session 1\acrobat.ASF
:FULLY-SPECIFIED
:DEGREES
2809
root 11.8849 15.2863 -17.3948 551.195 -165.812 -183.423
lowerback -2.9304 -0.31584 -5.75923
upperback -0.326236 -0.238177 0.134195
thorax 1.33253 -0.150318 3.35983
lowerneck -11.2706 -0.83394 -4.69351
upperneck 10.7711 -1.09848 5.79943
head 5.14238 -0.338327 2.49498
rclavicle 8.24956e-015 -1.35174e-014
rhumerus -49.9989 -6.31478 -56.7165
rradius 38.6509
rwrist -8.06611
rhand -21.5552 -339.964
rfingers 7.12502
rthumb 4.83825 -369.889
lclavicle 8.24956e-015 -1.35174e-014
lhumerus -216.675 183.846 258.084
lradius 34.4444
lwrist -335.631
lhand -20.5645 -666.411
lfingers 7.12502
lthumb 5.79479 1163.49
rfemur 153.02 -167.099 -154.729
rtibia 69.1576
rfoot -167.786 186.269
rtoes -6.9277
lfemur 157.105 179.439 157.671
ltibia 43.3937
lfoot -31.5019 24.7316
ltoes -9.95066
2810
root 11.8741 15.2539 -17.3187 550.851 -165.282 -182.865
lowerback -2.87776 -0.25649 -6.11036
upperback -0.304612 -0.150565 0.115113
thorax 1.31739 -0.108473 3.54111
lowerneck -11.2063 -0.763744 -4.57416
upperneck 10.8089 -0.979537 5.43348
head 5.1345 -0.300739 2.36951
rclavicle 4.28381e-014 2.46493e-014
rhumerus -49.9842 -6.10711 -57.7194
rradius 38.6399
rwrist -7.9493
rhand -21.4619 -340.218
rfingers 7.12502
rthumb 4.92834 -370.141
lclavicle 4.28381e-014 2.46493e-014
lhumerus -216.285 184.451 258.239
lradius 33.1701
lwrist -337.275
lhand -20.2706 -666.803
lfingers 7.12502
lthumb 6.07856 1163.09
rfemur 151.647 -168.496 -155.851
rtibia 71.3231
rfoot -167.13 186.729
rtoes 4.90715
lfemur 157.767 179.395 156.812
ltibia 43.3376
lfoot -33.0936 23.343
ltoes -0.690989
2811
root 11.8591 15.2238 -17.2438 550.571 -164.884 -182.272
lowerback -2.83777 -0.221351 -6.48875
upperback -0.276168 -0.0931996 0.0703017
thorax 1.31883 -0.0825366 3.70972
lowerneck -11.2894 -0.698065 -4.49272
upperneck 10.9227 -0.874424 5.19919
head 5.17699 -0.260484 2.29152
rclavicle -2.73329e-014 -3.97569e-015
rhumerus -49.9953 -5.88763 -58.9013
rradius 38.6865
rwrist -7.7152
rhand -21.5836 -340.45
rfingers 7.12502
rthumb 4.81085 -370.375
lclavicle -2.73329e-014 -3.97569e-015
lhumerus -215.788 184.879 258.268
lradius 31.9871
lwrist -338.616
lhand -19.9275 -666.873
lfingers 7.12502
lthumb 6.40979 1163.01
rfemur 150.139 -169.834 -156.857
rtibia 73.3957
rfoot -170.938 182.785
rtoes 0.241211
lfemur 158.368 179.08 155.91
ltibia 43.2144
lfoot -35.1161 21.2317
ltoes 10.6555
2812
root 11.8416 15.209 -17.1588 550.437 -164.639 -181.949
lowerback -2.84021 -0.234379 -6.57185
upperback -0.267019 -0.10803 0.11607
thorax 1.3316 -0.0911411 3.80331
lowerneck -11.5303 -0.617319 -4.39225
upperneck 11.1875 -0.744923 4.92197
head 5.29197 -0.208616 2.20034
rclavicle 5.76476e-015 7.95139e-016
rhumerus -49.9737 -5.60446 -60.1444
rradius 38.7194
rwrist -7.33904
rhand -21.3944 -340.543
rfingers 7.12502
rthumb 4.99355 -370.464
lclavicle 5.76476e-015 7.95139e-016
lhumerus -215.296 184.857 258.16
lradius 30.8354
lwrist -339.67
lhand -19.7838 -666.611
lfingers 7.12502
lthumb 6.54857 1163.27
rfemur 148.66 -171.138 -157.503
rtibia 75.0164
rfoot -175.749 177.752
rtoes -6.09749
lfemur 158.848 179.072 155.371
ltibia 43.0722
lfoot -37.5188 18.1563
ltoes 25.3028
2813
root 11.8232 15.1974 -17.0622 550.399 -164.516 -181.879
lowerback -2.98913 -0.321914 -6.38059
upperback -0.19946 -0.219588 0.27848
thorax 1.49776 -0.153047 3.85931
lowerneck -11.7263 -0.525342 -4.28826
upperneck 11.3274 -0.583028 4.53617
head 5.35946 -0.149789 2.07603
rclavicle 7.7526e-015 0
rhumerus -49.7924 -5.16358 -61.4353
rradius 38.7152
rwrist -6.86906
rhand -21.2123 -340.557
rfingers 7.12502
rthumb 5.16937 -370.474
lclavicle 7.7526e-015 0
lhumerus -214.744 184.151 257.931
lradius 29.7705
lwrist -340.557
lhand -19.7731 -666.495
lfingers 7.12502
lthumb 6.55885 1163.38
rfemur 147.22 -172.453 -157.895
rtibia 75.9704
rfoot -180.808 173.244
rtoes -12.1985
lfemur 159.329 179.638 155.207
ltibia 42.9482
lfoot -33.6407 24.2324
ltoes 3.08689
2814
root 11.8042 15.1837 -16.9622 550.314 -164.616 -181.847
lowerback -3.05808 -0.463965 -6.09883
upperback -0.137746 -0.414269 0.454979
thorax 1.62171 -0.254163 3.87477
lowerneck -11.5926 -0.489719 -4.177
upperneck 11.3385 -0.508196 4.15835
head 5.33604 -0.136604 1.94443
rclavicle -6.55989e-015 3.97569e-015
rhumerus -49.7229 -4.77152 -62.6311
rradius 38.7343
rwrist -6.17958
rhand -20.855 -340.904
rfingers 7.12502
rthumb 5.51432 -370.812
lclavicle -6.55989e-015 3.97569e-015
lhumerus -214.25 183.305 257.701
lradius 28.9413
lwrist -340.964
lhand -19.8395 -666.526
lfingers 7.12502
lthumb 6.49477 1163.35
rfemur 145.896 -173.567 -158.228
rtibia 76.1545
rfoot -185.478 170.368
rtoes -13.4644
lfemur 159.906 180.266 155.144
ltibia 42.8587
lfoot -32.5091 26.2212
ltoes -3.51241
2815
root 11.7833 15.175 -16.8597 550.25 -164.942 -181.78
lowerback -3.00904 -0.661448 -5.86294
upperback -0.130753 -0.692025 0.661958
thorax 1.6323 -0.392359 3.94406
lowerneck -11.4704 -0.521201 -4.02766
upperneck 11.5048 -0.524387 3.71262
head 5.36694 -0.171017 1.77922
rclavicle -4.91992e-014 -2.0276e-014
rhumerus -49.6902 -4.47539 -63.6037
rradius 38.694
rwrist -5.39643
rhand -19.4835 -341.261
rfingers 7.12502
rthumb 6.8384 -371.131
lclavicle -4.91992e-014 -2.0276e-014
lhumerus -213.952 182.546 257.639
lradius 28.5256
lwrist -340.761
lhand -20.1902 -666.155
lfingers 7.12502
lthumb 6.15617 1163.74
rfemur 144.625 -174.478 -158.544
rtibia 75.468
rfoot -189.591 168.847
rtoes -12.6213
lfemur 160.475 180.728 155.098
ltibia 42.7192
lfoot -33.0913 25.9898
ltoes -1.57904
2816
root 11.7598 15.1669 -16.7531 550.262 -165.39 -181.673
lowerback -2.95014 -0.916287 -5.69058
upperback -0.153206 -1.04616 0.918422
thorax 1.6174 -0.568097 4.09724
lowerneck -11.6157 -0.506313 -3.92286
upperneck 11.8236 -0.467101 3.30409
head 5.48789 -0.167299 1.64015
rclavicle -1.72446e-014 -3.18055e-015
rhumerus -49.6249 -4.08132 -64.4662
rradius 38.5462
rwrist -5.00172
rhand -17.5884 -340.579
rfingers 7.12502
rthumb 8.66753 -370.381
lclavicle -1.72446e-014 -3.18055e-015
lhumerus -213.728 181.83 257.818
lradius 28.4154
lwrist -340.012
lhand -20.8295 -665.455
lfingers 7.12502
lthumb 5.53901 1164.45
rfemur 143.354 -175.282 -158.868
rtibia 73.9209
rfoot -192.907 168.111
rtoes -12.7296
lfemur 160.996 181.106 155.032
ltibia 42.4599
lfoot -33.3386 25.7156
ltoes -0.103184
2817
root 11.7331 15.1653 -16.6407 550.221 -165.836 -181.606
lowerback -2.7493 -1.13496 -5.48786
upperback -0.189427 -1.36144 1.18946
thorax 1.50491 -0.721314 4.25311
lowerneck -11.8425 -0.452751 -3.81295
upperneck 12.2308 -0.368352 2.99015
head 5.64963 -0.136995 1.53389
rclavicle 4.96962e-015 -3.97569e-016
rhumerus -49.7738 -3.68132 -65.2282
rradius 38.4726
rwrist -4.98401
rhand -16.2408 -339.807
rfingers 7.12502
rthumb 9.96781 -369.551
lclavicle 4.96962e-015 -3.97569e-016
lhumerus -213.496 181.359 258.192
lradius 28.5026
lwrist -339.037
lhand -21.1261 -665.356
lfingers 7.12502
lthumb 5.25261 1164.56
rfemur 142.12 -176.111 -159.165
rtibia 71.6254
rfoot -195.438 168.024
rtoes -13.8024
lfemur 161.657 181.245 154.986
ltibia 42.0571
lfoot -32.8569 26.122
ltoes -1.84837
2818
root 11.7052 15.1742 -16.52 550.17 -166.229 -181.622
lowerback -2.47963 -1.30113 -5.20993
upperback -0.240287 -1.61141 1.479
thorax 1.33045 -0.839701 4.3918
lowerneck -11.9708 -0.43867 -3.66537
upperneck 12.6342 -0.328392 2.65395
head 5.79631 -0.136869 1.40918
rclavicle 1.01629e-014 -8.15017e-015
rhumerus -50.0951 -3.27668 -65.8782
rradius 38.5487
rwrist -5.10639
rhand -15.5487 -340.007
rfingers 7.12502
rthumb 10.6355 -369.718
lclavicle 1.01629e-014 -8.15017e-015
lhumerus -213.463 181.324 258.742
lradius 29.0502
lwrist -338.033
lhand -20.8748 -665.592
lfingers 7.12502
lthumb 5.49523 1164.32
rfemur 140.934 -177.028 -159.455
rtibia 68.6509
rfoot -197.346 168.506
rtoes -14.2148
lfemur 162.484 181.439 155.025
ltibia 41.5019
lfoot -32.5717 26.4082
ltoes -2.85081
2819
root 11.6753 15.1721 -16.394 550.036 -166.651 -181.555
lowerback -2.2283 -1.46753 -5.01931
upperback -0.216013 -1.85477 1.76343
thorax 1.24597 -0.959849 4.57519
lowerneck -12.0779 -0.469721 -3.55418
upperneck 12.9492 -0.338644 2.30342
head 5.91384 -0.164413 1.28076
rclavicle -2.58172e-014 6.06293e-015
rhumerus -50.3477 -2.91776 -66.3778
rradius 38.5649
rwrist -5.29572
rhand -15.2088 -340.269
rfingers 7.12502
rthumb 10.9634 -369.962
lclavicle -2.58172e-014 6.06293e-015
lhumerus -213.512 181.736 259.502
lradius 29.9694
lwrist -336.951
lhand -20.8036 -665.562
lfingers 7.12502
lthumb 5.56396 1164.34
rfemur 140.141 -177.881 -159.88
rtibia 65.1083
rfoot -199.077 169.527
rtoes -13.9644
lfemur 163.516 181.804 154.999
ltibia 40.7914
lfoot -32.7423 26.1934
ltoes -1.43362
2820
root 11.6408 15.1625 -16.2608 549.834 -167.087 -181.382
lowerback -2.05642 -1.60917 -4.98713
upperback -0.0861231 -2.05526 2.05274
thorax 1.31673 -1.06646 4.85279
lowerneck -12.3298 -0.552163 -3.49684
upperneck 13.2496 -0.402791 1.96219
head 6.05338 -0.219908 1.15896
rclavicle 2.40467e-014 -5.30507e-015
rhumerus -50.4566 -2.74124 -66.6411
rradius 38.4109
rwrist -5.4709
rhand -14.9536 -340.092
rfingers 7.12502
rthumb 11.2095 -369.772
lclavicle 2.40467e-014 -5.30507e-015
lhumerus -213.421 182.492 260.488
lradius 31.0195
lwrist -336.081
lhand -20.8774 -665.571
lfingers 7.12502
lthumb 5.49269 1164.34
rfemur 139.674 -178.703 -160.439
rtibia 61.16
rfoot -200.98 170.578
rtoes -14.4841
lfemur 164.675 182.02 154.863
ltibia 39.9517
lfoot -32.6428 26.1625
ltoes -1.7228
2821
root 11.6029 15.1693 -16.1171 549.791 -167.486 -181.253
lowerback -2.1014 -1.71716 -4.91498
upperback 0.0475329 -2.20254 2.34696
thorax 1.50706 -1.15004 5.10936
lowerneck -12.6138 -0.677961 -3.49152
upperneck 13.4939 -0.52598 1.70722
head 6.18264 -0.30005 1.06689
rclavicle 1.00883e-014 6.4605e-015
rhumerus -50.5543 -2.66879 -66.7458
rradius 38.2399
rwrist -5.56652
rhand -14.7192 -339.898
rfingers 7.12502
rthumb 11.4355 -369.566
lclavicle 1.00883e-014 6.4605e-015
lhumerus -213.253 183.572 261.578
lradius 32.1848
lwrist -335.508
lhand -20.5162 -665.88
lfingers 7.12502
lthumb 5.84149 1164.02
rfemur 139.066 -179.677 -161.045
rtibia 56.9816
rfoot -203.077 171.197
rtoes -13.8521
lfemur 165.718 181.957 154.757
ltibia 39.0165
lfoot -32.017 26.7953
ltoes -5.3478
2822
root 11.5625 15.1827 -15.9659 549.898 -167.871 -181.113
lowerback -2.35745 -1.83097 -4.82911
upperback 0.159271 -2.35008 2.61062
thorax 1.79284 -1.23593 5.31999
lowerneck -12.8232 -0.790056 -3.49762
upperneck 13.6967 -0.64872 1.57106
head 6.28614 -0.371431 1.01379
rclavicle -1.37161e-014 2.62396e-014
rhumerus -50.6412 -2.66921 -66.7482
rradius 38.0896
rwrist -5.50696
rhand -14.6503 -339.814
rfingers 7.12502
rthumb 11.5021 -369.478
lclavicle -1.37161e-014 2.62396e-014
lhumerus -213.033 184.823 262.615
lradius 33.3616
lwrist -335.113
lhand -19.7897 -666.359
lfingers 7.12502
lthumb 6.54282 1163.52
rfemur 138.326 -180.701 -161.743
rtibia 52.8023
rfoot -205.178 170.891
rtoes -13.642
lfemur 166.686 181.865 154.664
ltibia 37.9595
lfoot -31.5653 27.2987
ltoes -7.86515
2823
root 11.5209 15.1888 -15.8084 550.029 -168.148 -180.89
lowerback -2.68561 -1.91057 -4.81432
upperback 0.241771 -2.44796 2.83083
thorax 2.08467 -1.29702 5.52581
lowerneck -12.9285 -0.905281 -3.46694
upperneck 13.8938 -0.785246 1.42719
head 6.37014 -0.448745 0.950565
rclavicle 2.21148e-014 3.45885e-014
rhumerus -50.7294 -2.80907 -66.5963
rradius 37.8831
rwrist -5.32267
rhand -14.6769 -339.814
rfingers 7.12502
rthumb 11.4764 -369.48
lclavicle 2.21148e-014 3.45885e-014
lhumerus -212.889 186.178 263.624
lradius 34.6091
lwrist -334.815
lhand -19.2677 -666.593
lfingers 7.12502
lthumb 7.04675 1163.27
rfemur 137.606 -181.606 -162.542
rtibia 48.8207
rfoot -206.711 170.005
rtoes -16.6649
lfemur 167.747 181.854 154.514
ltibia 36.7767
lfoot -31.7366 27.0767
ltoes -7.56388
